<mxfile host="app.diagrams.net" modified="2023-06-25T05:16:25.679Z" agent="Mozilla/5.0 (Windows NT 10.0; Win64; x64) AppleWebKit/537.36 (KHTML, like Gecko) Chrome/114.0.0.0 Safari/537.36 Edg/114.0.1823.51" etag="Cbh4Dik9dh-sxwUnkyOy" version="21.5.0" type="github">
  <diagram name="第 1 页" id="tp9-DIR90uXELLOAhKr_">
    <mxGraphModel dx="1101" dy="591" grid="0" gridSize="10" guides="1" tooltips="1" connect="1" arrows="1" fold="1" page="1" pageScale="1" pageWidth="2336" pageHeight="1654" math="0" shadow="0">
      <root>
        <mxCell id="0" />
        <mxCell id="1" parent="0" />
        <mxCell id="2G89EVDPKEi4vwQxbu5T-1" value="CLA电路" style="rounded=0;whiteSpace=wrap;html=1;" vertex="1" parent="1">
          <mxGeometry x="124" y="114" width="667" height="79" as="geometry" />
        </mxCell>
        <mxCell id="2G89EVDPKEi4vwQxbu5T-2" value="8位BCLA" style="rounded=0;whiteSpace=wrap;html=1;" vertex="1" parent="1">
          <mxGeometry x="666" y="366" width="120" height="60" as="geometry" />
        </mxCell>
        <mxCell id="2G89EVDPKEi4vwQxbu5T-3" value="1120200827 张益宁 改进的ALU设计制图" style="text;html=1;strokeColor=none;fillColor=none;align=center;verticalAlign=middle;whiteSpace=wrap;rounded=0;" vertex="1" parent="1">
          <mxGeometry x="113" y="84" width="286" height="30" as="geometry" />
        </mxCell>
        <mxCell id="2G89EVDPKEi4vwQxbu5T-4" value="" style="shape=flexArrow;endArrow=classic;html=1;rounded=0;" edge="1" parent="1">
          <mxGeometry width="50" height="50" relative="1" as="geometry">
            <mxPoint x="691" y="504" as="sourcePoint" />
            <mxPoint x="691" y="426" as="targetPoint" />
          </mxGeometry>
        </mxCell>
        <mxCell id="2G89EVDPKEi4vwQxbu5T-5" value="" style="shape=flexArrow;endArrow=classic;html=1;rounded=0;" edge="1" parent="1">
          <mxGeometry width="50" height="50" relative="1" as="geometry">
            <mxPoint x="755" y="504" as="sourcePoint" />
            <mxPoint x="755" y="426" as="targetPoint" />
          </mxGeometry>
        </mxCell>
        <mxCell id="2G89EVDPKEi4vwQxbu5T-6" value="A7~A0" style="text;html=1;strokeColor=none;fillColor=none;align=center;verticalAlign=middle;whiteSpace=wrap;rounded=0;" vertex="1" parent="1">
          <mxGeometry x="633" y="454" width="60" height="30" as="geometry" />
        </mxCell>
        <mxCell id="2G89EVDPKEi4vwQxbu5T-7" value="B7~B0" style="text;html=1;strokeColor=none;fillColor=none;align=center;verticalAlign=middle;whiteSpace=wrap;rounded=0;" vertex="1" parent="1">
          <mxGeometry x="699" y="454" width="60" height="30" as="geometry" />
        </mxCell>
        <mxCell id="2G89EVDPKEi4vwQxbu5T-8" value="" style="shape=flexArrow;endArrow=classic;html=1;rounded=0;" edge="1" parent="1">
          <mxGeometry width="50" height="50" relative="1" as="geometry">
            <mxPoint x="752" y="366" as="sourcePoint" />
            <mxPoint x="752" y="288" as="targetPoint" />
          </mxGeometry>
        </mxCell>
        <mxCell id="2G89EVDPKEi4vwQxbu5T-9" value="S7~S0" style="text;html=1;strokeColor=none;fillColor=none;align=center;verticalAlign=middle;whiteSpace=wrap;rounded=0;" vertex="1" parent="1">
          <mxGeometry x="747" y="324" width="60" height="30" as="geometry" />
        </mxCell>
        <mxCell id="2G89EVDPKEi4vwQxbu5T-11" value="" style="endArrow=classic;html=1;rounded=0;exitX=0.25;exitY=0;exitDx=0;exitDy=0;" edge="1" parent="1" source="2G89EVDPKEi4vwQxbu5T-2">
          <mxGeometry width="50" height="50" relative="1" as="geometry">
            <mxPoint x="787" y="405.8420000000001" as="sourcePoint" />
            <mxPoint x="696" y="366" as="targetPoint" />
          </mxGeometry>
        </mxCell>
        <mxCell id="2G89EVDPKEi4vwQxbu5T-12" value="" style="endArrow=classic;html=1;rounded=0;" edge="1" parent="1">
          <mxGeometry width="50" height="50" relative="1" as="geometry">
            <mxPoint x="696" y="365.6666666666667" as="sourcePoint" />
            <mxPoint x="696" y="193" as="targetPoint" />
          </mxGeometry>
        </mxCell>
        <mxCell id="2G89EVDPKEi4vwQxbu5T-13" value="G1" style="text;html=1;strokeColor=none;fillColor=none;align=center;verticalAlign=middle;whiteSpace=wrap;rounded=0;" vertex="1" parent="1">
          <mxGeometry x="639" y="257" width="60" height="30" as="geometry" />
        </mxCell>
        <mxCell id="2G89EVDPKEi4vwQxbu5T-14" value="" style="endArrow=classic;html=1;rounded=0;" edge="1" parent="1">
          <mxGeometry width="50" height="50" relative="1" as="geometry">
            <mxPoint x="680" y="365.6666666666667" as="sourcePoint" />
            <mxPoint x="680" y="193" as="targetPoint" />
          </mxGeometry>
        </mxCell>
        <mxCell id="2G89EVDPKEi4vwQxbu5T-15" value="P1" style="text;html=1;strokeColor=none;fillColor=none;align=center;verticalAlign=middle;whiteSpace=wrap;rounded=0;" vertex="1" parent="1">
          <mxGeometry x="687" y="257" width="60" height="30" as="geometry" />
        </mxCell>
        <mxCell id="2G89EVDPKEi4vwQxbu5T-16" value="8位BCLA" style="rounded=0;whiteSpace=wrap;html=1;" vertex="1" parent="1">
          <mxGeometry x="488" y="366" width="120" height="60" as="geometry" />
        </mxCell>
        <mxCell id="2G89EVDPKEi4vwQxbu5T-17" value="" style="shape=flexArrow;endArrow=classic;html=1;rounded=0;" edge="1" parent="1">
          <mxGeometry width="50" height="50" relative="1" as="geometry">
            <mxPoint x="513" y="504" as="sourcePoint" />
            <mxPoint x="513" y="426" as="targetPoint" />
          </mxGeometry>
        </mxCell>
        <mxCell id="2G89EVDPKEi4vwQxbu5T-18" value="" style="shape=flexArrow;endArrow=classic;html=1;rounded=0;" edge="1" parent="1">
          <mxGeometry width="50" height="50" relative="1" as="geometry">
            <mxPoint x="577" y="504" as="sourcePoint" />
            <mxPoint x="577" y="426" as="targetPoint" />
          </mxGeometry>
        </mxCell>
        <mxCell id="2G89EVDPKEi4vwQxbu5T-19" value="A7~A0" style="text;html=1;strokeColor=none;fillColor=none;align=center;verticalAlign=middle;whiteSpace=wrap;rounded=0;" vertex="1" parent="1">
          <mxGeometry x="455" y="454" width="60" height="30" as="geometry" />
        </mxCell>
        <mxCell id="2G89EVDPKEi4vwQxbu5T-20" value="B7~B0" style="text;html=1;strokeColor=none;fillColor=none;align=center;verticalAlign=middle;whiteSpace=wrap;rounded=0;" vertex="1" parent="1">
          <mxGeometry x="521" y="454" width="60" height="30" as="geometry" />
        </mxCell>
        <mxCell id="2G89EVDPKEi4vwQxbu5T-21" value="" style="shape=flexArrow;endArrow=classic;html=1;rounded=0;" edge="1" parent="1">
          <mxGeometry width="50" height="50" relative="1" as="geometry">
            <mxPoint x="574" y="366" as="sourcePoint" />
            <mxPoint x="574" y="288" as="targetPoint" />
          </mxGeometry>
        </mxCell>
        <mxCell id="2G89EVDPKEi4vwQxbu5T-22" value="S7~S0" style="text;html=1;strokeColor=none;fillColor=none;align=center;verticalAlign=middle;whiteSpace=wrap;rounded=0;" vertex="1" parent="1">
          <mxGeometry x="569" y="324" width="60" height="30" as="geometry" />
        </mxCell>
        <mxCell id="2G89EVDPKEi4vwQxbu5T-23" value="" style="endArrow=classic;html=1;rounded=0;exitX=0.25;exitY=0;exitDx=0;exitDy=0;" edge="1" parent="1" source="2G89EVDPKEi4vwQxbu5T-16">
          <mxGeometry width="50" height="50" relative="1" as="geometry">
            <mxPoint x="609" y="405.8420000000001" as="sourcePoint" />
            <mxPoint x="518" y="366" as="targetPoint" />
          </mxGeometry>
        </mxCell>
        <mxCell id="2G89EVDPKEi4vwQxbu5T-24" value="" style="endArrow=classic;html=1;rounded=0;" edge="1" parent="1">
          <mxGeometry width="50" height="50" relative="1" as="geometry">
            <mxPoint x="518" y="365.6666666666667" as="sourcePoint" />
            <mxPoint x="518" y="193" as="targetPoint" />
          </mxGeometry>
        </mxCell>
        <mxCell id="2G89EVDPKEi4vwQxbu5T-25" value="G2" style="text;html=1;strokeColor=none;fillColor=none;align=center;verticalAlign=middle;whiteSpace=wrap;rounded=0;" vertex="1" parent="1">
          <mxGeometry x="461" y="257" width="60" height="30" as="geometry" />
        </mxCell>
        <mxCell id="2G89EVDPKEi4vwQxbu5T-26" value="" style="endArrow=classic;html=1;rounded=0;" edge="1" parent="1">
          <mxGeometry width="50" height="50" relative="1" as="geometry">
            <mxPoint x="502" y="365.6666666666667" as="sourcePoint" />
            <mxPoint x="502" y="193" as="targetPoint" />
          </mxGeometry>
        </mxCell>
        <mxCell id="2G89EVDPKEi4vwQxbu5T-27" value="P2" style="text;html=1;strokeColor=none;fillColor=none;align=center;verticalAlign=middle;whiteSpace=wrap;rounded=0;" vertex="1" parent="1">
          <mxGeometry x="509" y="257" width="60" height="30" as="geometry" />
        </mxCell>
        <mxCell id="2G89EVDPKEi4vwQxbu5T-28" value="8位BCLA" style="rounded=0;whiteSpace=wrap;html=1;" vertex="1" parent="1">
          <mxGeometry x="318" y="366" width="120" height="60" as="geometry" />
        </mxCell>
        <mxCell id="2G89EVDPKEi4vwQxbu5T-29" value="" style="shape=flexArrow;endArrow=classic;html=1;rounded=0;" edge="1" parent="1">
          <mxGeometry width="50" height="50" relative="1" as="geometry">
            <mxPoint x="343" y="504" as="sourcePoint" />
            <mxPoint x="343" y="426" as="targetPoint" />
          </mxGeometry>
        </mxCell>
        <mxCell id="2G89EVDPKEi4vwQxbu5T-30" value="" style="shape=flexArrow;endArrow=classic;html=1;rounded=0;" edge="1" parent="1">
          <mxGeometry width="50" height="50" relative="1" as="geometry">
            <mxPoint x="407" y="504" as="sourcePoint" />
            <mxPoint x="407" y="426" as="targetPoint" />
          </mxGeometry>
        </mxCell>
        <mxCell id="2G89EVDPKEi4vwQxbu5T-31" value="A7~A0" style="text;html=1;strokeColor=none;fillColor=none;align=center;verticalAlign=middle;whiteSpace=wrap;rounded=0;" vertex="1" parent="1">
          <mxGeometry x="285" y="454" width="60" height="30" as="geometry" />
        </mxCell>
        <mxCell id="2G89EVDPKEi4vwQxbu5T-32" value="B7~B0" style="text;html=1;strokeColor=none;fillColor=none;align=center;verticalAlign=middle;whiteSpace=wrap;rounded=0;" vertex="1" parent="1">
          <mxGeometry x="351" y="454" width="60" height="30" as="geometry" />
        </mxCell>
        <mxCell id="2G89EVDPKEi4vwQxbu5T-33" value="" style="shape=flexArrow;endArrow=classic;html=1;rounded=0;" edge="1" parent="1">
          <mxGeometry width="50" height="50" relative="1" as="geometry">
            <mxPoint x="404" y="366" as="sourcePoint" />
            <mxPoint x="404" y="288" as="targetPoint" />
          </mxGeometry>
        </mxCell>
        <mxCell id="2G89EVDPKEi4vwQxbu5T-34" value="S7~S0" style="text;html=1;strokeColor=none;fillColor=none;align=center;verticalAlign=middle;whiteSpace=wrap;rounded=0;" vertex="1" parent="1">
          <mxGeometry x="399" y="324" width="60" height="30" as="geometry" />
        </mxCell>
        <mxCell id="2G89EVDPKEi4vwQxbu5T-35" value="" style="endArrow=classic;html=1;rounded=0;exitX=0.25;exitY=0;exitDx=0;exitDy=0;" edge="1" parent="1" source="2G89EVDPKEi4vwQxbu5T-28">
          <mxGeometry width="50" height="50" relative="1" as="geometry">
            <mxPoint x="439" y="405.8420000000001" as="sourcePoint" />
            <mxPoint x="348" y="366" as="targetPoint" />
          </mxGeometry>
        </mxCell>
        <mxCell id="2G89EVDPKEi4vwQxbu5T-36" value="" style="endArrow=classic;html=1;rounded=0;" edge="1" parent="1">
          <mxGeometry width="50" height="50" relative="1" as="geometry">
            <mxPoint x="348" y="365.6666666666667" as="sourcePoint" />
            <mxPoint x="348" y="193" as="targetPoint" />
          </mxGeometry>
        </mxCell>
        <mxCell id="2G89EVDPKEi4vwQxbu5T-37" value="G2" style="text;html=1;strokeColor=none;fillColor=none;align=center;verticalAlign=middle;whiteSpace=wrap;rounded=0;" vertex="1" parent="1">
          <mxGeometry x="291" y="257" width="60" height="30" as="geometry" />
        </mxCell>
        <mxCell id="2G89EVDPKEi4vwQxbu5T-38" value="" style="endArrow=classic;html=1;rounded=0;" edge="1" parent="1">
          <mxGeometry width="50" height="50" relative="1" as="geometry">
            <mxPoint x="332" y="365.6666666666667" as="sourcePoint" />
            <mxPoint x="332" y="193" as="targetPoint" />
          </mxGeometry>
        </mxCell>
        <mxCell id="2G89EVDPKEi4vwQxbu5T-39" value="P2" style="text;html=1;strokeColor=none;fillColor=none;align=center;verticalAlign=middle;whiteSpace=wrap;rounded=0;" vertex="1" parent="1">
          <mxGeometry x="339" y="257" width="60" height="30" as="geometry" />
        </mxCell>
        <mxCell id="2G89EVDPKEi4vwQxbu5T-40" value="8位BCLA" style="rounded=0;whiteSpace=wrap;html=1;" vertex="1" parent="1">
          <mxGeometry x="144" y="363" width="120" height="60" as="geometry" />
        </mxCell>
        <mxCell id="2G89EVDPKEi4vwQxbu5T-41" value="" style="shape=flexArrow;endArrow=classic;html=1;rounded=0;" edge="1" parent="1">
          <mxGeometry width="50" height="50" relative="1" as="geometry">
            <mxPoint x="169" y="501" as="sourcePoint" />
            <mxPoint x="169" y="423" as="targetPoint" />
          </mxGeometry>
        </mxCell>
        <mxCell id="2G89EVDPKEi4vwQxbu5T-42" value="" style="shape=flexArrow;endArrow=classic;html=1;rounded=0;" edge="1" parent="1">
          <mxGeometry width="50" height="50" relative="1" as="geometry">
            <mxPoint x="233" y="501" as="sourcePoint" />
            <mxPoint x="233" y="423" as="targetPoint" />
          </mxGeometry>
        </mxCell>
        <mxCell id="2G89EVDPKEi4vwQxbu5T-43" value="A7~A0" style="text;html=1;strokeColor=none;fillColor=none;align=center;verticalAlign=middle;whiteSpace=wrap;rounded=0;" vertex="1" parent="1">
          <mxGeometry x="111" y="451" width="60" height="30" as="geometry" />
        </mxCell>
        <mxCell id="2G89EVDPKEi4vwQxbu5T-44" value="B7~B0" style="text;html=1;strokeColor=none;fillColor=none;align=center;verticalAlign=middle;whiteSpace=wrap;rounded=0;" vertex="1" parent="1">
          <mxGeometry x="177" y="451" width="60" height="30" as="geometry" />
        </mxCell>
        <mxCell id="2G89EVDPKEi4vwQxbu5T-45" value="" style="shape=flexArrow;endArrow=classic;html=1;rounded=0;" edge="1" parent="1">
          <mxGeometry width="50" height="50" relative="1" as="geometry">
            <mxPoint x="230" y="363" as="sourcePoint" />
            <mxPoint x="230" y="285" as="targetPoint" />
          </mxGeometry>
        </mxCell>
        <mxCell id="2G89EVDPKEi4vwQxbu5T-46" value="S7~S0" style="text;html=1;strokeColor=none;fillColor=none;align=center;verticalAlign=middle;whiteSpace=wrap;rounded=0;" vertex="1" parent="1">
          <mxGeometry x="225" y="321" width="60" height="30" as="geometry" />
        </mxCell>
        <mxCell id="2G89EVDPKEi4vwQxbu5T-47" value="" style="endArrow=classic;html=1;rounded=0;exitX=0.25;exitY=0;exitDx=0;exitDy=0;" edge="1" parent="1" source="2G89EVDPKEi4vwQxbu5T-40">
          <mxGeometry width="50" height="50" relative="1" as="geometry">
            <mxPoint x="265" y="402.8420000000001" as="sourcePoint" />
            <mxPoint x="174" y="363" as="targetPoint" />
          </mxGeometry>
        </mxCell>
        <mxCell id="2G89EVDPKEi4vwQxbu5T-48" value="" style="endArrow=classic;html=1;rounded=0;" edge="1" parent="1">
          <mxGeometry width="50" height="50" relative="1" as="geometry">
            <mxPoint x="174" y="362.6666666666667" as="sourcePoint" />
            <mxPoint x="174" y="190" as="targetPoint" />
          </mxGeometry>
        </mxCell>
        <mxCell id="2G89EVDPKEi4vwQxbu5T-49" value="G3" style="text;html=1;strokeColor=none;fillColor=none;align=center;verticalAlign=middle;whiteSpace=wrap;rounded=0;" vertex="1" parent="1">
          <mxGeometry x="117" y="254" width="60" height="30" as="geometry" />
        </mxCell>
        <mxCell id="2G89EVDPKEi4vwQxbu5T-50" value="" style="endArrow=classic;html=1;rounded=0;" edge="1" parent="1">
          <mxGeometry width="50" height="50" relative="1" as="geometry">
            <mxPoint x="158" y="362.6666666666667" as="sourcePoint" />
            <mxPoint x="158" y="190" as="targetPoint" />
          </mxGeometry>
        </mxCell>
        <mxCell id="2G89EVDPKEi4vwQxbu5T-51" value="P3" style="text;html=1;strokeColor=none;fillColor=none;align=center;verticalAlign=middle;whiteSpace=wrap;rounded=0;" vertex="1" parent="1">
          <mxGeometry x="165" y="254" width="60" height="30" as="geometry" />
        </mxCell>
        <mxCell id="2G89EVDPKEi4vwQxbu5T-52" value="" style="endArrow=classic;html=1;rounded=0;" edge="1" parent="1">
          <mxGeometry width="50" height="50" relative="1" as="geometry">
            <mxPoint x="900" y="398" as="sourcePoint" />
            <mxPoint x="786" y="398" as="targetPoint" />
          </mxGeometry>
        </mxCell>
        <mxCell id="2G89EVDPKEi4vwQxbu5T-53" value="" style="endArrow=classic;html=1;rounded=0;" edge="1" parent="1">
          <mxGeometry width="50" height="50" relative="1" as="geometry">
            <mxPoint x="850" y="157" as="sourcePoint" />
            <mxPoint x="791" y="157" as="targetPoint" />
          </mxGeometry>
        </mxCell>
        <mxCell id="2G89EVDPKEi4vwQxbu5T-54" value="" style="endArrow=none;html=1;rounded=0;" edge="1" parent="1">
          <mxGeometry width="50" height="50" relative="1" as="geometry">
            <mxPoint x="846" y="399" as="sourcePoint" />
            <mxPoint x="849" y="156" as="targetPoint" />
          </mxGeometry>
        </mxCell>
        <mxCell id="2G89EVDPKEi4vwQxbu5T-69" value="C0" style="text;html=1;strokeColor=none;fillColor=none;align=center;verticalAlign=middle;whiteSpace=wrap;rounded=0;" vertex="1" parent="1">
          <mxGeometry x="844" y="370" width="80" height="30" as="geometry" />
        </mxCell>
        <mxCell id="2G89EVDPKEi4vwQxbu5T-70" value="" style="endArrow=classic;html=1;rounded=0;exitX=0.781;exitY=1.002;exitDx=0;exitDy=0;exitPerimeter=0;" edge="1" parent="1" source="2G89EVDPKEi4vwQxbu5T-1">
          <mxGeometry width="50" height="50" relative="1" as="geometry">
            <mxPoint x="694" y="400" as="sourcePoint" />
            <mxPoint x="608" y="400" as="targetPoint" />
            <Array as="points">
              <mxPoint x="645" y="400" />
            </Array>
          </mxGeometry>
        </mxCell>
        <mxCell id="2G89EVDPKEi4vwQxbu5T-71" value="" style="endArrow=classic;html=1;rounded=0;exitX=0.781;exitY=1.002;exitDx=0;exitDy=0;exitPerimeter=0;" edge="1" parent="1">
          <mxGeometry width="50" height="50" relative="1" as="geometry">
            <mxPoint x="475" y="193" as="sourcePoint" />
            <mxPoint x="438" y="400" as="targetPoint" />
            <Array as="points">
              <mxPoint x="475" y="400" />
            </Array>
          </mxGeometry>
        </mxCell>
        <mxCell id="2G89EVDPKEi4vwQxbu5T-72" value="" style="endArrow=classic;html=1;rounded=0;exitX=0.781;exitY=1.002;exitDx=0;exitDy=0;exitPerimeter=0;" edge="1" parent="1">
          <mxGeometry width="50" height="50" relative="1" as="geometry">
            <mxPoint x="301" y="193" as="sourcePoint" />
            <mxPoint x="264" y="400" as="targetPoint" />
            <Array as="points">
              <mxPoint x="301" y="400" />
            </Array>
          </mxGeometry>
        </mxCell>
        <mxCell id="2G89EVDPKEi4vwQxbu5T-73" value="C8" style="text;html=1;strokeColor=none;fillColor=none;align=center;verticalAlign=middle;whiteSpace=wrap;rounded=0;" vertex="1" parent="1">
          <mxGeometry x="593" y="210" width="80" height="30" as="geometry" />
        </mxCell>
        <mxCell id="2G89EVDPKEi4vwQxbu5T-74" value="C16" style="text;html=1;strokeColor=none;fillColor=none;align=center;verticalAlign=middle;whiteSpace=wrap;rounded=0;" vertex="1" parent="1">
          <mxGeometry x="417.5" y="210" width="80" height="30" as="geometry" />
        </mxCell>
        <mxCell id="2G89EVDPKEi4vwQxbu5T-75" value="C24" style="text;html=1;strokeColor=none;fillColor=none;align=center;verticalAlign=middle;whiteSpace=wrap;rounded=0;" vertex="1" parent="1">
          <mxGeometry x="243" y="206" width="80" height="30" as="geometry" />
        </mxCell>
        <mxCell id="2G89EVDPKEi4vwQxbu5T-76" value="C32" style="text;html=1;strokeColor=none;fillColor=none;align=center;verticalAlign=middle;whiteSpace=wrap;rounded=0;" vertex="1" parent="1">
          <mxGeometry x="59" y="119" width="80" height="30" as="geometry" />
        </mxCell>
        <mxCell id="2G89EVDPKEi4vwQxbu5T-77" value="" style="endArrow=classic;html=1;rounded=0;" edge="1" parent="1">
          <mxGeometry width="50" height="50" relative="1" as="geometry">
            <mxPoint x="126" y="157" as="sourcePoint" />
            <mxPoint x="44" y="157" as="targetPoint" />
          </mxGeometry>
        </mxCell>
      </root>
    </mxGraphModel>
  </diagram>
</mxfile>
